<?xml version="1.0" encoding="UTF-8"?>
<svg id="Ebene_1" data-name="Ebene 1" xmlns="http://www.w3.org/2000/svg" version="1.1" viewBox="0 0 17 18.3">
  <defs>
    <style>
      .cls-1 {
        fill: #1d1d1b;
      }

      .cls-1, .cls-2 {
        stroke-width: 0px;
      }

      .cls-3 {
        fill: #7e0984;
      }

      .cls-3, .cls-4 {
        stroke: #848484;
        stroke-miterlimit: 10;
      }

      .cls-4 {
        fill: none;
      }

      .cls-2 {
        fill: #fff;
      }
    </style>
  </defs>
  <path class="cls-1" d="M4.8,6.4h.8v-2.1c0-.5-.3-1.1-.8-1.2s-.2,0-.2,0c-.4,0-.6.2-.8.4v-1.5h-.8v4.4h.8v-2c0-.3.2-.5.4-.6s0,0,0,0c.4,0,.5.2.5.5v2.1ZM8,7v-.2h-1.9v.2h1.9ZM7.9,4.8c0,.5.1,1,.4,1.3s.5.3.8.3.6,0,.8-.3v.3s.8,0,.8,0V2h-.8v1.5c-.2-.2-.5-.3-.8-.3s-.7.1-.8.3c-.3.4-.3,1-.4,1.3ZM9.9,4.8c0,.5-.1.9-.6.9s-.5-.4-.5-.9.1-.9.5-.9.6.4.6.9h0ZM14,6.4v-2.1c0-.6-.5-1.1-1.1-1.2s-.2,0-.3,0c-.4,0-.9,0-1.1.4l.5.6c.1-.2.4-.3.6-.3s.5,0,.6.3,0,0,0,.2v.2s-.6,0-.8,0c-.5,0-1,.3-1.1.8s0,0,0,.2c0,.3.1.5.3.7s.5.3.8.3.6,0,.8-.3v.3h.8ZM13.2,5.2c0,0,0,.3-.1.4s-.3.2-.5.2-.4,0-.5-.3h0c0-.3.2-.5.4-.5h.6v.2h.1Z"/>
  <rect class="cls-4" x=".2" width="16.8" height="8.6" transform="translate(17.2 8.6) rotate(180)"/>
  <rect class="cls-3" x=".2" y="8.6" width="16.8" height="9.7"/>
  <path class="cls-2" d="M6.6,16.1v-1.5l2.6-1.2-2.6-1.2v-1.5l4.4,2v1.2l-4.4,2Z"/>
</svg>