<?xml version="1.0" encoding="utf-8"?>
<!-- Generator: Adobe Illustrator 24.2.0, SVG Export Plug-In . SVG Version: 6.00 Build 0)  -->
<svg version="1.1" id="Ebene_1" xmlns="http://www.w3.org/2000/svg" xmlns:xlink="http://www.w3.org/1999/xlink" x="0px" y="0px"
	 viewBox="0 0 32 20" style="enable-background:new 0 0 32 20;" xml:space="preserve">
<style type="text/css">
	.st0{fill:#4E5663;stroke:#FFFFFF;stroke-miterlimit:10;}
	.st1{fill:none;stroke:#FFFFFF;stroke-miterlimit:10;}
	.st2{fill:#FFFFFF;}
</style>
<rect y="0" class="st0" width="32" height="20"/>
<line class="st1" x1="2.1" y1="12.2" x2="27.3" y2="12.2"/>
<line class="st1" x1="2.1" y1="14.6" x2="21.9" y2="14.6"/>
<line class="st1" x1="2.1" y1="9.5" x2="21.9" y2="9.5"/>
<line class="st1" x1="2.1" y1="17.3" x2="29.5" y2="17.3"/>
<g>
	<path class="st2" d="M3.9-32.3v-4.5h0.9v4.5H3.9z"/>
	<path class="st2" d="M8.4-32.3L6.6-35v2.7H5.7v-4.5h0.8L8.3-34v-2.7h0.9v4.5H8.4z"/>
	<path class="st2" d="M11-36v1.1h1.8v0.8H11v1.8h-0.9v-4.5h2.9v0.8H11z"/>
	<path class="st2" d="M16.8-34.5c0,0.2,0,0.4,0,0.5c0,0.2,0,0.3,0,0.5c0,0.1-0.1,0.3-0.1,0.4c-0.1,0.1-0.1,0.2-0.3,0.4
		c-0.2,0.2-0.3,0.3-0.5,0.4c-0.2,0.1-0.4,0.1-0.7,0.1s-0.5,0-0.7-0.1c-0.2-0.1-0.4-0.2-0.5-0.4c-0.1-0.1-0.2-0.2-0.3-0.4
		c-0.1-0.1-0.1-0.3-0.1-0.4c0-0.1,0-0.3,0-0.5c0-0.2,0-0.3,0-0.5c0-0.2,0-0.4,0-0.5c0-0.2,0-0.3,0-0.5c0-0.1,0.1-0.3,0.1-0.4
		s0.1-0.2,0.3-0.4c0.2-0.2,0.3-0.3,0.5-0.4c0.2-0.1,0.4-0.1,0.7-0.1s0.5,0,0.7,0.1s0.4,0.2,0.5,0.4c0.1,0.1,0.2,0.2,0.3,0.4
		s0.1,0.3,0.1,0.4c0,0.1,0,0.3,0,0.5C16.8-34.9,16.8-34.7,16.8-34.5z M15.9-34.5c0-0.2,0-0.4,0-0.5s0-0.3,0-0.3c0-0.1,0-0.2-0.1-0.2
		c0-0.1-0.1-0.1-0.1-0.2c-0.1-0.1-0.1-0.1-0.2-0.2c-0.1,0-0.2-0.1-0.3-0.1s-0.2,0-0.3,0.1s-0.2,0.1-0.2,0.2c0,0-0.1,0.1-0.1,0.2
		c0,0.1,0,0.1-0.1,0.2c0,0.1,0,0.2,0,0.3s0,0.3,0,0.5c0,0.2,0,0.4,0,0.5c0,0.1,0,0.3,0,0.3s0,0.2,0.1,0.2c0,0.1,0.1,0.1,0.1,0.2
		c0.1,0.1,0.1,0.1,0.2,0.2S15-33,15.1-33s0.2,0,0.3-0.1c0.1,0,0.2-0.1,0.2-0.2c0,0,0.1-0.1,0.1-0.2c0-0.1,0.1-0.1,0.1-0.2
		s0-0.2,0-0.3C15.9-34.1,15.9-34.3,15.9-34.5z"/>
	<path class="st2" d="M18.5-36v1.1h1.8v0.8h-1.8v1.8h-0.9v-4.5h2.9v0.8H18.5z"/>
	<path class="st2" d="M24.3-34.5c0,0.2,0,0.4,0,0.5c0,0.2,0,0.3,0,0.5c0,0.1-0.1,0.3-0.1,0.4c-0.1,0.1-0.1,0.2-0.3,0.4
		c-0.2,0.2-0.3,0.3-0.5,0.4c-0.2,0.1-0.4,0.1-0.7,0.1s-0.5,0-0.7-0.1c-0.2-0.1-0.4-0.2-0.5-0.4c-0.1-0.1-0.2-0.2-0.3-0.4
		c-0.1-0.1-0.1-0.3-0.1-0.4c0-0.1,0-0.3,0-0.5c0-0.2,0-0.3,0-0.5c0-0.2,0-0.4,0-0.5c0-0.2,0-0.3,0-0.5c0-0.1,0.1-0.3,0.1-0.4
		s0.1-0.2,0.3-0.4c0.2-0.2,0.3-0.3,0.5-0.4s0.4-0.1,0.7-0.1s0.5,0,0.7,0.1s0.4,0.2,0.5,0.4c0.1,0.1,0.2,0.2,0.3,0.4s0.1,0.3,0.1,0.4
		c0,0.1,0,0.3,0,0.5C24.3-34.9,24.3-34.7,24.3-34.5z M23.4-34.5c0-0.2,0-0.4,0-0.5c0-0.1,0-0.3,0-0.3c0-0.1,0-0.2-0.1-0.2
		c0-0.1-0.1-0.1-0.1-0.2c-0.1-0.1-0.1-0.1-0.2-0.2c-0.1,0-0.2-0.1-0.3-0.1s-0.2,0-0.3,0.1c-0.1,0-0.2,0.1-0.2,0.2
		c0,0-0.1,0.1-0.1,0.2c0,0.1,0,0.1-0.1,0.2c0,0.1,0,0.2,0,0.3c0,0.1,0,0.3,0,0.5c0,0.2,0,0.4,0,0.5c0,0.1,0,0.3,0,0.3s0,0.2,0.1,0.2
		c0,0.1,0.1,0.1,0.1,0.2c0.1,0.1,0.1,0.1,0.2,0.2c0.1,0,0.2,0.1,0.3,0.1s0.2,0,0.3-0.1c0.1,0,0.2-0.1,0.2-0.2c0,0,0.1-0.1,0.1-0.2
		c0-0.1,0.1-0.1,0.1-0.2s0-0.2,0-0.3C23.4-34.1,23.4-34.3,23.4-34.5z"/>
	<path class="st2" d="M27.2-32.3l-0.9-1.6l-0.9,1.6h-1l1.4-2.3l-1.3-2.2h1l0.8,1.4l0.8-1.4h1l-1.3,2.2l1.4,2.3H27.2z"/>
</g>
<g>
	<path class="st2" d="M2.3,6.6V2.1h0.9v4.5H2.3z"/>
	<path class="st2" d="M6.8,6.6L5.1,3.9v2.7H4.2V2.1H5l1.8,2.7V2.1h0.9v4.5H6.8z"/>
	<path class="st2" d="M9.5,2.9V4h1.8v0.8H9.5v1.8H8.6V2.1h2.9v0.8H9.5z"/>
	<path class="st2" d="M15.2,4.4c0,0.2,0,0.4,0,0.5c0,0.2,0,0.3,0,0.5c0,0.1-0.1,0.3-0.1,0.4C15,5.9,14.9,6,14.8,6.2
		c-0.2,0.2-0.3,0.3-0.5,0.4c-0.2,0.1-0.4,0.1-0.7,0.1s-0.5,0-0.7-0.1c-0.2-0.1-0.4-0.2-0.5-0.4c-0.1-0.1-0.2-0.2-0.3-0.4
		C12.1,5.7,12,5.5,12,5.4c0-0.1,0-0.3,0-0.5c0-0.2,0-0.3,0-0.5c0-0.2,0-0.4,0-0.5c0-0.2,0-0.3,0-0.5c0-0.1,0.1-0.3,0.1-0.4
		s0.1-0.2,0.3-0.4c0.2-0.2,0.3-0.3,0.5-0.4c0.2-0.1,0.4-0.1,0.7-0.1s0.5,0,0.7,0.1s0.4,0.2,0.5,0.4C14.9,2.7,15,2.8,15.1,3
		s0.1,0.3,0.1,0.4c0,0.1,0,0.3,0,0.5C15.2,4,15.2,4.2,15.2,4.4z M14.4,4.4c0-0.2,0-0.4,0-0.5s0-0.3,0-0.3c0-0.1,0-0.2-0.1-0.2
		c0-0.1-0.1-0.1-0.1-0.2C14.1,3,14,3,13.9,2.9c-0.1,0-0.2-0.1-0.3-0.1s-0.2,0-0.3,0.1S13.1,3,13,3.1c0,0-0.1,0.1-0.1,0.2
		c0,0.1,0,0.1-0.1,0.2c0,0.1,0,0.2,0,0.3s0,0.3,0,0.5c0,0.2,0,0.4,0,0.5c0,0.1,0,0.3,0,0.3s0,0.2,0.1,0.2C13,5.5,13,5.6,13,5.6
		c0.1,0.1,0.1,0.1,0.2,0.2s0.2,0.1,0.3,0.1s0.2,0,0.3-0.1c0.1,0,0.2-0.1,0.2-0.2c0,0,0.1-0.1,0.1-0.2c0-0.1,0.1-0.1,0.1-0.2
		s0-0.2,0-0.3C14.4,4.8,14.4,4.6,14.4,4.4z"/>
	<path class="st2" d="M16.9,2.9V4h1.8v0.8h-1.8v1.8h-0.9V2.1H19v0.8H16.9z"/>
	<path class="st2" d="M22.7,4.4c0,0.2,0,0.4,0,0.5c0,0.2,0,0.3,0,0.5c0,0.1-0.1,0.3-0.1,0.4c-0.1,0.1-0.1,0.2-0.3,0.4
		c-0.2,0.2-0.3,0.3-0.5,0.4c-0.2,0.1-0.4,0.1-0.7,0.1s-0.5,0-0.7-0.1c-0.2-0.1-0.4-0.2-0.5-0.4c-0.1-0.1-0.2-0.2-0.3-0.4
		c-0.1-0.1-0.1-0.3-0.1-0.4c0-0.1,0-0.3,0-0.5c0-0.2,0-0.3,0-0.5c0-0.2,0-0.4,0-0.5c0-0.2,0-0.3,0-0.5c0-0.1,0.1-0.3,0.1-0.4
		s0.1-0.2,0.3-0.4c0.2-0.2,0.3-0.3,0.5-0.4s0.4-0.1,0.7-0.1s0.5,0,0.7,0.1s0.4,0.2,0.5,0.4c0.1,0.1,0.2,0.2,0.3,0.4s0.1,0.3,0.1,0.4
		c0,0.1,0,0.3,0,0.5C22.7,4,22.7,4.2,22.7,4.4z M21.9,4.4c0-0.2,0-0.4,0-0.5c0-0.1,0-0.3,0-0.3c0-0.1,0-0.2-0.1-0.2
		c0-0.1-0.1-0.1-0.1-0.2C21.6,3,21.5,3,21.4,2.9c-0.1,0-0.2-0.1-0.3-0.1s-0.2,0-0.3,0.1c-0.1,0-0.2,0.1-0.2,0.2c0,0-0.1,0.1-0.1,0.2
		c0,0.1,0,0.1-0.1,0.2c0,0.1,0,0.2,0,0.3c0,0.1,0,0.3,0,0.5c0,0.2,0,0.4,0,0.5c0,0.1,0,0.3,0,0.3s0,0.2,0.1,0.2
		c0,0.1,0.1,0.1,0.1,0.2c0.1,0.1,0.1,0.1,0.2,0.2c0.1,0,0.2,0.1,0.3,0.1s0.2,0,0.3-0.1c0.1,0,0.2-0.1,0.2-0.2c0,0,0.1-0.1,0.1-0.2
		c0-0.1,0.1-0.1,0.1-0.2s0-0.2,0-0.3C21.9,4.8,21.9,4.6,21.9,4.4z"/>
	<path class="st2" d="M25.7,6.6l-0.9-1.6L24,6.6h-1l1.4-2.3l-1.3-2.2h1l0.8,1.4l0.8-1.4h1l-1.3,2.2l1.4,2.3H25.7z"/>
</g>
</svg>
