<?xml version="1.0" encoding="utf-8"?>
<!-- Generator: Adobe Illustrator 23.0.6, SVG Export Plug-In . SVG Version: 6.00 Build 0)  -->
<svg version="1.1" id="Ebene_1" xmlns="http://www.w3.org/2000/svg" xmlns:xlink="http://www.w3.org/1999/xlink" x="0px" y="0px"
	 viewBox="0 0 32 20" style="enable-background:new 0 0 32 20;" xml:space="preserve">
<style type="text/css">
	.st0{fill:#FFFFFF;stroke:#4E5663;stroke-miterlimit:10;}
	.st1{fill:#4E5663;stroke:#4E5663;stroke-miterlimit:10;}
	.st2{fill:none;stroke:#4E5663;stroke-miterlimit:10;}
	.st3{fill:#4E5663;}
	.st4{fill:#FFFFFF;}
</style>
<rect y="0" class="st0" width="32" height="10.8"/>
<rect y="10.8" class="st1" width="32" height="9.4"/>
<line class="st2" x1="0" y1="10.8" x2="32" y2="10.8"/>
<g>
	<path class="st3" d="M3.4,7.6V3h0.9v4.6H3.4z"/>
	<path class="st3" d="M8.1,7.6L6.3,4.7v2.8H5.4V3h0.8L8,5.8V3h0.9v4.6H8.1z"/>
	<path class="st3" d="M10.9,3.8v1.1h1.8v0.8h-1.8v1.9H10V3h3v0.8H10.9z"/>
	<path class="st3" d="M17,5.3c0,0.2,0,0.4,0,0.6c0,0.2,0,0.3-0.1,0.5c0,0.1-0.1,0.3-0.1,0.4c-0.1,0.1-0.2,0.2-0.3,0.4
		c-0.2,0.2-0.3,0.3-0.5,0.4s-0.4,0.1-0.7,0.1c-0.3,0-0.5,0-0.7-0.1c-0.2-0.1-0.4-0.2-0.5-0.4C14,7,13.9,6.9,13.8,6.8
		s-0.1-0.3-0.1-0.4c0-0.1,0-0.3-0.1-0.5c0-0.2,0-0.4,0-0.6c0-0.2,0-0.4,0-0.6c0-0.2,0-0.3,0.1-0.5c0-0.1,0.1-0.3,0.1-0.4
		s0.2-0.2,0.3-0.4c0.2-0.2,0.3-0.3,0.5-0.4C14.8,3,15,2.9,15.3,2.9c0.3,0,0.5,0,0.7,0.1c0.2,0.1,0.4,0.2,0.5,0.4
		c0.1,0.1,0.2,0.2,0.3,0.4c0.1,0.1,0.1,0.3,0.1,0.4c0,0.1,0,0.3,0.1,0.5C17,4.9,17,5.1,17,5.3z M16.1,5.3c0-0.2,0-0.4,0-0.5
		c0-0.1,0-0.3,0-0.4c0-0.1,0-0.2-0.1-0.2C16,4.1,15.9,4,15.9,4c-0.1-0.1-0.1-0.1-0.2-0.2c-0.1,0-0.2-0.1-0.3-0.1
		c-0.1,0-0.2,0-0.3,0.1c-0.1,0-0.2,0.1-0.2,0.2c0,0-0.1,0.1-0.1,0.2c0,0.1-0.1,0.1-0.1,0.2c0,0.1,0,0.2,0,0.4c0,0.1,0,0.3,0,0.5
		c0,0.2,0,0.4,0,0.5c0,0.1,0,0.3,0,0.4c0,0.1,0,0.2,0.1,0.2c0,0.1,0.1,0.1,0.1,0.2c0.1,0.1,0.2,0.1,0.2,0.2c0.1,0,0.2,0.1,0.3,0.1
		c0.1,0,0.2,0,0.3-0.1c0.1,0,0.2-0.1,0.2-0.2c0,0,0.1-0.1,0.1-0.2c0-0.1,0.1-0.1,0.1-0.2c0-0.1,0-0.2,0-0.4
		C16.1,5.7,16.1,5.5,16.1,5.3z"/>
	<path class="st3" d="M20.6,5.2c0.1,0,0.2,0.1,0.2,0.1c0,0,0.1,0.1,0.1,0.1c0.1,0.1,0.2,0.2,0.2,0.4c0,0.1,0.1,0.3,0.1,0.4
		c0,0.2,0,0.4-0.1,0.5C21.1,7,21,7.1,20.9,7.2s-0.3,0.2-0.4,0.3S20,7.6,19.8,7.6h-1.9V3h1.8c0.2,0,0.4,0,0.6,0.1
		c0.2,0.1,0.3,0.1,0.4,0.3c0.1,0.1,0.2,0.2,0.3,0.4c0.1,0.2,0.1,0.3,0.1,0.5C21.2,4.7,21,5,20.6,5.2z M19.7,4.8c0.2,0,0.3,0,0.4-0.1
		c0.1-0.1,0.2-0.2,0.2-0.4S20.2,4,20.1,3.9c-0.1-0.1-0.3-0.1-0.4-0.1h-0.9v1.1H19.7z M19.7,6.8c0.2,0,0.3-0.1,0.4-0.2
		c0.1-0.1,0.2-0.2,0.2-0.4s-0.1-0.3-0.2-0.4c-0.1-0.1-0.3-0.1-0.4-0.1h-0.9v1.1H19.7z"/>
	<path class="st3" d="M25.4,5.3c0,0.2,0,0.4,0,0.6c0,0.2,0,0.3-0.1,0.5c0,0.1-0.1,0.3-0.1,0.4S25,7,24.9,7.1
		c-0.2,0.2-0.3,0.3-0.5,0.4S24,7.6,23.7,7.6c-0.3,0-0.5,0-0.7-0.1c-0.2-0.1-0.4-0.2-0.5-0.4c-0.1-0.1-0.2-0.2-0.3-0.4
		s-0.1-0.3-0.1-0.4C22,6.2,22,6,22,5.9c0-0.2,0-0.4,0-0.6c0-0.2,0-0.4,0-0.6c0-0.2,0-0.3,0.1-0.5c0-0.1,0.1-0.3,0.1-0.4
		s0.2-0.2,0.3-0.4c0.2-0.2,0.3-0.3,0.5-0.4c0.2-0.1,0.4-0.1,0.7-0.1c0.3,0,0.5,0,0.7,0.1c0.2,0.1,0.4,0.2,0.5,0.4
		c0.1,0.1,0.2,0.2,0.3,0.4s0.1,0.3,0.1,0.4c0,0.1,0,0.3,0.1,0.5C25.4,4.9,25.4,5.1,25.4,5.3z M24.5,5.3c0-0.2,0-0.4,0-0.5
		c0-0.1,0-0.3,0-0.4c0-0.1,0-0.2-0.1-0.2c0-0.1-0.1-0.1-0.1-0.2c-0.1-0.1-0.1-0.1-0.2-0.2c-0.1,0-0.2-0.1-0.3-0.1
		c-0.1,0-0.2,0-0.3,0.1c-0.1,0-0.2,0.1-0.2,0.2c0,0-0.1,0.1-0.1,0.2c0,0.1-0.1,0.1-0.1,0.2c0,0.1,0,0.2,0,0.4c0,0.1,0,0.3,0,0.5
		c0,0.2,0,0.4,0,0.5c0,0.1,0,0.3,0,0.4c0,0.1,0,0.2,0.1,0.2c0,0.1,0.1,0.1,0.1,0.2c0.1,0.1,0.2,0.1,0.2,0.2c0.1,0,0.2,0.1,0.3,0.1
		c0.1,0,0.2,0,0.3-0.1c0.1,0,0.2-0.1,0.2-0.2c0,0,0.1-0.1,0.1-0.2c0-0.1,0.1-0.1,0.1-0.2c0-0.1,0-0.2,0-0.4
		C24.5,5.7,24.5,5.5,24.5,5.3z"/>
	<path class="st3" d="M28.6,7.6L27.7,6l-0.9,1.6h-1l1.4-2.3L25.9,3h1l0.8,1.5L28.5,3h1l-1.3,2.2l1.4,2.3H28.6z"/>
</g>
<g>
	<path class="st4" d="M13.5,18.1v-1.6l2.9-1.3l-2.9-1.3v-1.6l4.9,2.2v1.4L13.5,18.1z"/>
</g>
</svg>
